<svg version="1.1" xmlns="http://www.w3.org/2000/svg" viewBox="0 0 363.9015071163658 282.99608074356104" width="363.9015071163658" height="282.99608074356104">
  <!-- svg-source:excalidraw -->
  
  <defs>
    <style class="style-fonts">
      @font-face {
        font-family: "Virgil";
        src: url("https://excalidraw.com/Virgil.woff2");
      }
      @font-face {
        font-family: "Cascadia";
        src: url("https://excalidraw.com/Cascadia.woff2");
      }
      @font-face {
        font-family: "Assistant";
        src: url("https://excalidraw.com/Assistant-Regular.woff2");
      }
    </style>
    
  </defs>
  <g stroke-linecap="round" transform="translate(113.10186722913136 13.945373116519363) rotate(0 50 43)"><path d="M3.25 -1.24 C22.8 2.7, 44.43 -2.29, 102.89 -3.04 M0.42 -1.45 C20.66 0.39, 40.95 -1.37, 101.41 -1.39 M100.39 -3.67 C100.89 30.8, 102.16 56.15, 103.1 83.69 M98.27 -0.85 C99.59 24.08, 100.41 46.46, 99.71 86.37 M103.97 86.04 C64.06 85.66, 30.1 84.76, -2.44 86.37 M98.71 87.64 C69.96 86.44, 38.68 85.86, 1.31 86.08 M-3.18 86.64 C-1.95 69.52, -2.74 48.57, -2.14 -3.81 M1.31 87.12 C-0.18 58.83, -1.44 30.61, 1.44 -0.93" stroke="#1e1e1e" stroke-width="2" fill="none"></path></g><g transform="translate(151.70787003674855 34.44537311651936) rotate(0 11.393997192382812 22.5)"><text x="11.393997192382812" y="31.536" font-family="Virgil, Segoe UI Emoji" font-size="36px" fill="#343a40" text-anchor="middle" style="white-space: pre;" direction="ltr" dominant-baseline="alphabetic">m</text></g><g stroke-linecap="round"><g transform="translate(157.28985522406333 101.56917138894624) rotate(0 23.18678657132932 4.868652742007754)"><path d="M0 0 C15.76 3.05, 33.82 6.07, 46.37 9.74 M0 0 C17.7 4.46, 36.13 7.66, 46.37 9.74" stroke="#1e1e1e" stroke-width="2" fill="none"></path></g></g><mask></mask><g stroke-linecap="round"><g transform="translate(206.06798401115634 112.78824075096418) rotate(0 -41.90796980299524 5.2920138500084875)"><path d="M0 0 C-27.57 1.81, -56.03 5.07, -83.82 10.58 M0 0 C-20.24 3.03, -39.66 6.66, -83.82 10.58" stroke="#1e1e1e" stroke-width="2" fill="none"></path></g></g><mask></mask><g stroke-linecap="round"><g transform="translate(125.00010799880488 122.5255462349798) rotate(0 21.12573887610006 5.821215235009305)"><path d="M0 0 C12.26 2.3, 21.98 5.47, 42.25 11.64 M0 0 C16.67 5.12, 33.87 9.5, 42.25 11.64" stroke="#1e1e1e" stroke-width="2" fill="none"></path></g></g><mask></mask><g stroke-linecap="round"><g transform="translate(158.3730301427256 132.58595890751957) rotate(0 23.18678657132932 4.868652742007754)"><path d="M0 0 C9.68 1.47, 21.6 4.09, 46.37 9.74 M0 0 C12.96 2.65, 24.87 4.82, 46.37 9.74" stroke="#1e1e1e" stroke-width="2" fill="none"></path></g></g><mask></mask><g stroke-linecap="round"><g transform="translate(207.15115892981862 143.8050282695375) rotate(0 -41.90796980299524 5.2920138500084875)"><path d="M0 0 C-15.07 0.46, -34.52 3.14, -83.82 10.58 M0 0 C-33.2 3.83, -65.67 8.15, -83.82 10.58" stroke="#1e1e1e" stroke-width="2" fill="none"></path></g></g><mask></mask><g stroke-linecap="round"><g transform="translate(126.08328291746716 153.54233375355307) rotate(0 21.12573887610006 5.821215235009305)"><path d="M0 0 C8.58 2.33, 18.51 5.56, 42.25 11.64 M0 0 C13.78 3.88, 28.41 7.86, 42.25 11.64" stroke="#1e1e1e" stroke-width="2" fill="none"></path></g></g><mask></mask><g stroke-linecap="round"><g transform="translate(156.31198244749635 162.71515668357142) rotate(0 23.18678657132932 4.868652742007782)"><path d="M0 0 C12.66 3.14, 23.98 4.14, 46.37 9.74 M0 0 C11.02 2.29, 22.44 5.11, 46.37 9.74" stroke="#1e1e1e" stroke-width="2" fill="none"></path></g></g><mask></mask><g stroke-linecap="round"><g transform="translate(205.09011123458936 173.93422604558936) rotate(0 -41.90796980299524 5.2920138500084875)"><path d="M0 0 C-22.72 1.79, -48.23 4.64, -83.82 10.58 M0 0 C-21.98 3.21, -44.06 5.56, -83.82 10.58" stroke="#1e1e1e" stroke-width="2" fill="none"></path></g></g><mask></mask><g stroke-linecap="round"><g transform="translate(124.0222352222379 183.67153152960498) rotate(0 21.12573887610006 5.821215235009305)"><path d="M0 0 C14.74 3.48, 30.27 8.37, 42.25 11.64 M0 0 C11.66 3.13, 23.39 6.36, 42.25 11.64" stroke="#1e1e1e" stroke-width="2" fill="none"></path></g></g><mask></mask><g stroke-linecap="round"><g transform="translate(158.6787462539976 193.67643121567465) rotate(0 23.18678657132932 4.868652742007754)"><path d="M0 0 C13.27 2.99, 27.06 6.04, 46.37 9.74 M0 0 C18.14 3.59, 36.31 6.98, 46.37 9.74" stroke="#1e1e1e" stroke-width="2" fill="none"></path></g></g><mask></mask><g stroke-linecap="round"><g transform="translate(207.4568750410906 204.89550057769253) rotate(0 -41.90796980299524 5.2920138500084875)"><path d="M0 0 C-22.57 2.74, -40.1 5.75, -83.82 10.58 M0 0 C-31.01 2.82, -61.83 8.7, -83.82 10.58" stroke="#1e1e1e" stroke-width="2" fill="none"></path></g></g><mask></mask><g stroke-linecap="round"><g transform="translate(126.38899902873959 214.6328060617082) rotate(0 21.12573887610006 5.821215235009305)"><path d="M0 0 C13.31 3.67, 25.52 6.75, 42.25 11.64 M0 0 C12.14 4.05, 23.88 6.43, 42.25 11.64" stroke="#1e1e1e" stroke-width="2" fill="none"></path></g></g><mask></mask><g stroke-linecap="round"><g transform="translate(161.19436197213417 225.1216276923787) rotate(0 23.18678657132932 4.868652742007754)"><path d="M0 0 C14.08 2.88, 27.35 5.22, 46.37 9.74 M0 0 C9.73 2.03, 19.12 3.72, 46.37 9.74" stroke="#1e1e1e" stroke-width="2" fill="none"></path></g></g><mask></mask><g stroke-linecap="round"><g transform="translate(209.97249075922718 236.34069705439657) rotate(0 -41.90796980299524 5.2920138500084875)"><path d="M0 0 C-17.88 0.85, -35.36 5.82, -83.82 10.58 M0 0 C-26.7 3.57, -53.95 6.29, -83.82 10.58" stroke="#1e1e1e" stroke-width="2" fill="none"></path></g></g><mask></mask><g stroke-linecap="round"><g transform="translate(128.90461474687618 246.07800253841225) rotate(0 21.12573887610006 5.821215235009305)"><path d="M0 0 C14.59 4.75, 29.76 8.02, 42.25 11.64 M0 0 C13.96 3.33, 27.11 7.49, 42.25 11.64" stroke="#1e1e1e" stroke-width="2" fill="none"></path></g></g><mask></mask><g stroke-linecap="round"><g transform="translate(10 99.28874227570287) rotate(0 29.55848468810177 0.20963464317799207)"><path d="M0 0 C9.85 0.07, 49.26 0.35, 59.12 0.42 M0 0 C9.85 0.07, 49.26 0.35, 59.12 0.42" stroke="#343a40" stroke-width="1" fill="none"></path></g></g><mask></mask><g stroke-linecap="round"><g transform="translate(38.92958075856768 99.70801156205886) rotate(0 0.41926928635609784 -30.187388617635776)"><path d="M0 0 C0.14 -10.06, 0.7 -50.31, 0.84 -60.37 M0 0 C0.14 -10.06, 0.7 -50.31, 0.84 -60.37" stroke="#343a40" stroke-width="1" fill="none"></path></g><g transform="translate(38.92958075856768 99.70801156205886) rotate(0 0.41926928635609784 -30.187388617635776)"><path d="M0.84 -60.37 L6.99 -46.69 L-5.69 -46.87 L0.84 -60.37" stroke="none" stroke-width="0" fill="#343a40" fill-rule="evenodd"></path><path d="M0.84 -60.37 C2.16 -57.44, 3.48 -54.51, 6.99 -46.69 M0.84 -60.37 C2.56 -56.54, 4.29 -52.71, 6.99 -46.69 M6.99 -46.69 C4.13 -46.73, 1.27 -46.77, -5.69 -46.87 M6.99 -46.69 C3.61 -46.74, 0.24 -46.79, -5.69 -46.87 M-5.69 -46.87 C-3.9 -50.58, -2.11 -54.28, 0.84 -60.37 M-5.69 -46.87 C-3.21 -52, -0.73 -57.13, 0.84 -60.37 M0.84 -60.37 C0.84 -60.37, 0.84 -60.37, 0.84 -60.37 M0.84 -60.37 C0.84 -60.37, 0.84 -60.37, 0.84 -60.37" stroke="#343a40" stroke-width="1" fill="none"></path></g></g><mask></mask><g transform="translate(47.73423577204494 56.52327506738544) rotate(0 4.689994812011719 12.5)"><text x="0" y="17.52" font-family="Virgil, Segoe UI Emoji" font-size="20px" fill="#343a40" text-anchor="start" style="white-space: pre;" direction="ltr" dominant-baseline="alphabetic">y</text></g><g stroke-linecap="round"><g transform="translate(70.37477723527161 100.12728084841501) rotate(0 111.10636088435393 0)"><path d="M0 0 C37.04 0, 185.18 0, 222.21 0" stroke="#343a40" stroke-width="1.5" fill="none" stroke-dasharray="1.5 7"></path></g></g><mask></mask><g stroke-linecap="round"><g transform="translate(270.3662268271087 99.70801156205891) rotate(0 -0.5099206712925479 -32.87137605142914)"><path d="M0.42 -1.15 C0.39 -11.81, -0.32 -54.16, -0.61 -64.94 M-0.82 0.85 C-0.95 -10.05, -1.18 -55.71, -1.44 -66.6" stroke="#e03131" stroke-width="2" fill="none"></path></g><g transform="translate(270.3662268271087 99.70801156205891) rotate(0 -0.5099206712925479 -32.87137605142914)"><path d="M7.41 -43.22 C3.35 -48.96, 4.42 -56.33, -1.44 -66.6 M7.41 -43.22 C4.59 -50.39, 2.03 -57.27, -1.44 -66.6" stroke="#e03131" stroke-width="2" fill="none"></path></g><g transform="translate(270.3662268271087 99.70801156205891) rotate(0 -0.5099206712925479 -32.87137605142914)"><path d="M-9.69 -43 C-9.24 -48.85, -3.68 -56.28, -1.44 -66.6 M-9.69 -43 C-7.36 -50.08, -4.78 -57.03, -1.44 -66.6" stroke="#e03131" stroke-width="2" fill="none"></path></g></g><mask></mask><g transform="translate(261.5615718136314 10) rotate(0 46.16996765136719 12.5)"><text x="0" y="17.52" font-family="Virgil, Segoe UI Emoji" font-size="20px" fill="#e03131" text-anchor="start" style="white-space: pre;" direction="ltr" dominant-baseline="alphabetic">Fs = -y*k</text></g><g stroke-linecap="round"><g transform="translate(270.22568536388167 100.9926287608456) rotate(0 -0.571597437486389 30.603915971827035)"><path d="M0.23 0.89 C0.15 10.97, -0.11 49.79, -0.05 59.36 M-1.11 0.3 C-1.43 10.7, -1.42 51.11, -1.26 60.9" stroke="#2f9e44" stroke-width="2" fill="none"></path></g><g transform="translate(270.22568536388167 100.9926287608456) rotate(0 -0.571597437486389 30.603915971827035)"><path d="M-9.96 37.47 C-5.8 44.46, -4.34 53.35, -1.26 60.9 M-9.96 37.47 C-8.19 42.53, -6.47 47.37, -1.26 60.9" stroke="#2f9e44" stroke-width="2" fill="none"></path></g><g transform="translate(270.22568536388167 100.9926287608456) rotate(0 -0.571597437486389 30.603915971827035)"><path d="M7.14 37.36 C5.57 44.42, 1.3 53.34, -1.26 60.9 M7.14 37.36 C5.29 42.43, 3.39 47.3, -1.26 60.9" stroke="#2f9e44" stroke-width="2" fill="none"></path></g></g><mask></mask><g transform="translate(258.20741752278354 165.53328951995917) rotate(0 43.41997528076172 12.5)"><text x="0" y="17.52" font-family="Virgil, Segoe UI Emoji" font-size="20px" fill="#2f9e44" text-anchor="start" style="white-space: pre;" direction="ltr" dominant-baseline="alphabetic">Fg = m*g</text></g><g stroke-linecap="round"><g transform="translate(260.72303324091945 100.9658194211271) rotate(0 9.345079518044713 -0.2445433525780345)"><path d="M-0.23 0.01 C2.91 -0.14, 15.75 -0.48, 18.92 -0.49 M0.65 -0.47 C3.71 -0.6, 15.56 -0.21, 18.52 -0.04" stroke="#2f9e44" stroke-width="2" fill="none"></path></g></g><mask></mask><g stroke-linecap="round"><g transform="translate(260.30376395456346 98.86947298934683) rotate(0 8.47636648222715 0.08381906266558303)"><path d="M0.05 -0.49 C3.01 -0.49, 14.61 -0.12, 17.54 -0.03 M-0.58 0.45 C2.32 0.54, 14.1 0.62, 17.07 0.65" stroke="#e03131" stroke-width="2" fill="none"></path></g></g><mask></mask><g stroke-linecap="round"><g transform="translate(69.1169693762032 256.9339939455788) rotate(0 101.85145391335419 0.8859316373875004)"><path d="M0.6 0.32 C34.82 0.74, 170.1 2.04, 204.25 2.32 M-0.55 -0.55 C33.57 -0.51, 168.83 -0.32, 203.12 0.32" stroke="#1e1e1e" stroke-width="2" fill="none"></path></g></g><mask></mask><g stroke-linecap="round"><g transform="translate(90.49970298036214 259.0303403773589) rotate(0 -5.821641667375218 5.618900247554905)"><path d="M-0.16 0.1 C-2.24 1.89, -10.19 9.14, -12.18 10.87 M0.76 -0.32 C-1.38 1.55, -10.24 9.69, -12.4 11.56" stroke="#1e1e1e" stroke-width="2" fill="none"></path></g></g><mask></mask><g stroke-linecap="round"><g transform="translate(104.42465437162059 259.6126705163106) rotate(0 -5.93464819268263 5.212967889573122)"><path d="M0.4 -0.03 C-1.59 1.7, -9.95 8.64, -12.09 10.47 M-0.06 -0.52 C-2.06 1.25, -10.16 8.93, -12.27 10.95" stroke="#1e1e1e" stroke-width="2" fill="none"></path></g></g><mask></mask><g stroke-linecap="round"><g transform="translate(119.93761796679473 260.0319398026668) rotate(0 -6.164985564918652 5.628121930967211)"><path d="M0.49 -0.43 C-1.65 1.4, -10.27 9.14, -12.45 10.96 M0.07 0.54 C-2.16 2.47, -10.65 9.96, -12.82 11.69" stroke="#1e1e1e" stroke-width="2" fill="none"></path></g></g><mask></mask><g stroke-linecap="round"><g transform="translate(135.0313122756122 260.45120908902277) rotate(0 -6.457168093108976 5.297377499457127)"><path d="M0.13 0.06 C-2.05 1.88, -10.47 8.6, -12.6 10.49 M-0.47 -0.39 C-2.77 1.53, -10.94 9.15, -13.04 10.98" stroke="#1e1e1e" stroke-width="2" fill="none"></path></g></g><mask></mask><g stroke-linecap="round"><g transform="translate(152.64062230256673 260.45120908902277) rotate(0 -6.585605376557851 5.502801328505086)"><path d="M-0.02 -0.41 C-2.15 1.48, -10.63 9.61, -12.67 11.41 M-0.7 0.57 C-2.92 2.32, -11.19 9.01, -13.15 10.71" stroke="#1e1e1e" stroke-width="2" fill="none"></path></g></g><mask></mask><g stroke-linecap="round"><g transform="translate(168.57285518409662 261.28974766173485) rotate(0 -6.325552961835115 5.578165063824201)"><path d="M-0.09 0.51 C-2.14 2.32, -10.12 8.63, -12.28 10.41 M-0.8 0.3 C-2.89 2.19, -10.7 9.19, -12.56 10.86" stroke="#1e1e1e" stroke-width="2" fill="none"></path></g></g><mask></mask><g stroke-linecap="round"><g transform="translate(185.34362663833917 260.03193980266667) rotate(0 -6.369824671127731 5.359626110995805)"><path d="M0.3 -0.49 C-1.86 1.29, -10.85 9.22, -13.04 11.21 M-0.21 0.44 C-2.2 2.3, -9.86 8.7, -12.04 10.4" stroke="#1e1e1e" stroke-width="2" fill="none"></path></g></g><mask></mask><g stroke-linecap="round"><g transform="translate(203.37220595164877 260.870478375379) rotate(0 -6.5465292161349 5.721531541991169)"><path d="M-0.46 0.31 C-2.65 2.3, -10.78 9.68, -12.84 11.45 M0.31 -0.01 C-2 1.89, -11.15 8.83, -13.4 10.77" stroke="#1e1e1e" stroke-width="2" fill="none"></path></g></g><mask></mask><g stroke-linecap="round"><g transform="translate(219.72370811953533 261.2897476617351) rotate(0 -6.340370070824292 6.015137358050481)"><path d="M-0.26 0.55 C-2.31 2.32, -10.72 9.26, -12.77 10.95 M0.61 0.35 C-1.49 2.2, -11.06 9.87, -13.29 11.68" stroke="#1e1e1e" stroke-width="2" fill="none"></path></g></g><mask></mask><g stroke-linecap="round"><g transform="translate(236.0752102874212 261.70901694809106) rotate(0 -6.089240129405425 5.443539583351139)"><path d="M-0.19 0.05 C-2.23 1.74, -10.4 8.83, -12.5 10.69 M0.72 -0.4 C-1.37 1.6, -10.56 9.5, -12.9 11.29" stroke="#1e1e1e" stroke-width="2" fill="none"></path></g></g><mask></mask><g stroke-linecap="round"><g transform="translate(251.16890459623892 259.6126705163108) rotate(0 -6.657746479184652 5.2091616786375425)"><path d="M0.07 -0.21 C-2.03 1.65, -10.8 9.44, -12.83 11.21 M-0.55 -0.79 C-2.73 0.91, -11.45 8.47, -13.39 10.4" stroke="#1e1e1e" stroke-width="2" fill="none"></path></g></g><mask></mask><g stroke-linecap="round"><g transform="translate(266.68186819141306 260.0319398026668) rotate(0 -6.197075491525993 5.766368650387619)"><path d="M0.53 0.43 C-1.65 2.18, -10.7 9, -12.92 10.74 M0.14 0.18 C-1.89 1.98, -9.64 9.48, -11.87 11.35" stroke="#1e1e1e" stroke-width="2" fill="none"></path></g></g><mask></mask><g stroke-linecap="round"><g transform="translate(75.91434289940912 259.6126705163106) rotate(0 -5.922604972617137 5.544192916090765)"><path d="M0.47 -0.48 C-1.51 1.28, -9.99 8.97, -12.12 10.88 M0.04 0.47 C-1.94 2.29, -10.22 9.71, -12.31 11.57" stroke="#1e1e1e" stroke-width="2" fill="none"></path></g></g><mask></mask></svg>